<?xml version="1.0" encoding="UTF-8" standalone="no"?>
<!DOCTYPE svg PUBLIC "-//W3C//DTD SVG 1.1//EN" "http://www.w3.org/Graphics/SVG/1.1/DTD/svg11.dtd">
<svg width="100%" height="100%" viewBox="0 0 4096 1042" version="1.1" xmlns="http://www.w3.org/2000/svg" xmlns:xlink="http://www.w3.org/1999/xlink" xml:space="preserve" xmlns:serif="http://www.serif.com/" style="fill-rule:evenodd;clip-rule:evenodd;stroke-linejoin:round;stroke-miterlimit:1.41421;">
    <g transform="matrix(3.42569,-1.97302,1.97783,3.41737,1793.11,-505.585)">
        <path d="M390.138,392.175C392.112,394.149 393.099,396.616 393.099,399.577C393.099,402.539 392.112,405.006 390.138,406.98L295.875,501.243L266.757,472.125L361.02,377.862C362.994,375.888 365.461,374.901 368.423,374.901C371.384,374.901 373.851,375.888 375.825,377.862L390.138,392.175ZM223.327,500.256C229.578,494.005 236.981,490.879 245.535,490.879C254.09,490.879 261.492,494.005 267.744,500.256C273.995,506.508 277.121,513.91 277.121,522.465C277.121,533.98 273.008,543.851 264.783,552.076C256.557,560.302 246.687,564.414 235.171,564.414C218.062,564.414 204.079,557.341 193.222,543.193C198.157,543.193 202.845,541.301 207.287,537.517C211.729,533.734 213.95,528.716 213.95,522.465C213.95,513.91 217.075,506.508 223.327,500.256Z" style="fill-rule:nonzero;"/>
    </g>
    <g transform="matrix(4.88152,0,0,4.86966,-721.121,-1929.4)">
        <path d="M281.192,548.868C281.192,541.877 278.725,536.51 273.789,532.767C268.854,529.025 259.971,525.076 247.139,520.923C234.307,516.769 224.149,512.677 216.664,508.646C196.265,497.624 186.065,482.777 186.065,464.106C186.065,454.4 188.8,445.742 194.27,438.134C199.74,430.525 207.595,424.583 217.836,420.305C228.077,416.028 239.572,413.89 252.321,413.89C265.153,413.89 276.586,416.213 286.621,420.861C296.656,425.508 304.45,432.068 310.002,440.54C315.554,449.012 318.33,458.636 318.33,469.411L281.316,469.411C281.316,461.186 278.725,454.79 273.543,450.225C268.361,445.66 261.081,443.378 251.704,443.378C242.656,443.378 235.623,445.29 230.606,449.115C225.589,452.94 223.08,457.978 223.08,464.229C223.08,470.069 226.02,474.963 231.901,478.911C237.783,482.86 246.44,486.561 257.873,490.016C278.93,496.349 294.271,504.204 303.894,513.581C313.518,522.958 318.33,534.638 318.33,548.622C318.33,564.168 312.449,576.362 300.686,585.204C288.924,594.046 273.09,598.468 253.185,598.468C239.366,598.468 226.781,595.938 215.43,590.88C204.079,585.821 195.422,578.891 189.458,570.09C183.495,561.289 180.513,551.089 180.513,539.491L217.651,539.491C217.651,559.315 229.496,569.226 253.185,569.226C261.986,569.226 268.854,567.437 273.789,563.859C278.725,560.281 281.192,555.284 281.192,548.868Z" style="fill-rule:nonzero;"/>
        <path d="M373.096,542.453L360.265,555.284L360.265,596L324.608,596L324.608,406.487L360.265,406.487L360.265,511.484L367.174,502.601L401.351,462.502L444.164,462.502L395.922,518.147L448.359,596L407.396,596L373.096,542.453Z" style="fill-rule:nonzero;"/>
        <path d="M495.821,598.468C476.245,598.468 460.308,592.463 448.011,580.454C435.714,568.445 429.565,552.446 429.565,532.459L429.565,529.004C429.565,515.597 432.156,503.608 437.338,493.039C442.52,482.469 449.862,474.326 459.362,468.609C468.862,462.892 479.699,460.034 491.873,460.034C510.133,460.034 524.507,465.792 534.994,477.307C545.482,488.823 550.726,505.15 550.726,526.29L550.726,540.849L465.716,540.849C466.868,549.568 470.343,556.559 476.142,561.823C481.941,567.088 489.282,569.72 498.165,569.72C511.902,569.72 522.636,564.743 530.368,554.791L547.888,574.408C542.541,581.976 535.303,587.877 526.173,592.113C517.043,596.35 506.925,598.468 495.821,598.468ZM491.749,488.905C484.676,488.905 478.938,491.291 474.538,496.061C470.137,500.832 467.32,507.659 466.086,516.543L515.685,516.543L515.685,513.705C515.521,505.808 513.382,499.701 509.27,495.383C505.157,491.064 499.317,488.905 491.749,488.905Z" style="fill-rule:nonzero;"/>
        <path d="M601.016,429.682L601.016,462.502L623.841,462.502L623.841,488.658L601.016,488.658L601.016,555.284C601.016,560.219 601.962,563.756 603.853,565.895C605.745,568.034 609.364,569.103 614.711,569.103C618.659,569.103 622.155,568.815 625.198,568.239L625.198,595.26C618.207,597.398 611.01,598.468 603.607,598.468C578.601,598.468 565.852,585.842 565.359,560.59L565.359,488.658L545.864,488.658L545.864,462.502L565.359,462.502L565.359,429.682L601.016,429.682Z" style="fill-rule:nonzero;"/>
        <path d="M686.593,569.72C693.173,569.72 698.52,567.91 702.632,564.291C706.745,560.672 708.884,555.86 709.048,549.855L742.484,549.855C742.402,558.903 739.934,567.191 735.081,574.717C730.229,582.243 723.586,588.083 715.155,592.237C706.724,596.391 697.409,598.468 687.21,598.468C668.127,598.468 653.074,592.401 642.052,580.269C631.03,568.136 625.519,551.377 625.519,529.991L625.519,527.647C625.519,507.083 630.989,490.674 641.929,478.418C652.869,466.162 667.88,460.034 686.963,460.034C703.66,460.034 717.047,464.784 727.123,474.285C737.2,483.785 742.32,496.431 742.484,512.224L709.048,512.224C708.884,505.315 706.745,499.701 702.632,495.383C698.52,491.064 693.091,488.905 686.346,488.905C678.038,488.905 671.766,491.928 667.53,497.974C663.294,504.019 661.176,513.828 661.176,527.4L661.176,531.102C661.176,544.838 663.274,554.708 667.469,560.713C671.664,566.718 678.038,569.72 686.593,569.72Z" style="fill-rule:nonzero;"/>
        <path d="M785.001,477.061C794.461,465.71 806.346,460.034 820.659,460.034C849.612,460.034 864.294,476.855 864.706,510.497L864.706,596L829.049,596L829.049,511.484C829.049,503.834 827.403,498.179 824.113,494.519C820.823,490.859 815.353,489.029 807.704,489.029C797.257,489.029 789.69,493.059 785.001,501.12L785.001,596L749.344,596L749.344,406.487L785.001,406.487L785.001,477.061Z" style="fill-rule:nonzero;"/>
    </g>
</svg>
